<svg id="Layer_1" data-name="Layer 1" xmlns="http://www.w3.org/2000/svg" viewBox="0 0 1310.66 837.75"><defs><style>.cls-1{fill:#ccc;}</style></defs><path class="cls-1" d="M1016.38,1599.76c23.62,0,47.24-.14,70.85.06,14.61.12,28.8,2.76,42.12,9,25.69,12.11,39,32.31,39.23,60.78.14,14.24-1.15,28.29-8,41.16-5,9.28-12.43,16.36-20.6,22.77-1.31,1-2.51,2.18-3.81,3.2-2.68,2.1-2.75,4.33-1.25,7.37,10.93,22.23,21.95,44.43,32,67.07,1.62,3.63,3,7.38,4.5,11s-.07,5.41-3.63,5.72c-14.77,1.27-29.57,1.17-44.36.77-4.49-.12-9-.58-13.44-.75-4-.14-6.38-2-7.77-5.75-7.59-20.59-16.08-40.83-24.53-61.09-3.28-7.86-8.12-10.92-16.66-10.33a77.88,77.88,0,0,1-10.47.15c-4.53-.3-6.35,1.55-6.32,6,.06,10,.64,19.91,1.55,29.84,1,11.08,1.78,22.18,2.39,33.29.39,7-.46,7.53-7.34,7.91a429.9,429.9,0,0,1-49.35.38c-1.49-.09-3-.16-4.47-.34-5.71-.69-7.48-2.7-7.54-8.31-.18-18.13,1.27-36.19,2-54.28,1.34-33.24,1.48-66.48.62-99.74-.36-14-.73-27.91-1.21-41.86-.16-4.47-.85-8.92-1-13.39-.22-6.1,1.62-8.21,7.6-8.59,9.61-.62,19.24-1,28.87-1.52Zm47.28,108.91c4.14,0,6.82.15,9.47,0,8-.53,15.93-1.55,22.39-7.13,9.88-8.53,9.27-19.64,7.36-30.87a22.54,22.54,0,0,0-12.72-17c-13.07-6.44-27-6.3-41-4.27-3.66.54-5.3,2.94-5.48,7.06-.68,15.12-.51,30.23-.31,45.35.05,3.45,1.46,4.81,4.39,5.4A96.17,96.17,0,0,0,1063.66,1708.67Z" transform="translate(-761.99 -998.45)"/><path class="cls-1" d="M830,1600.62c17.28.92,37.59-.69,57.8,2.18,40.41,5.76,69.49,39.11,69.72,79.82.09,16.28-.89,32.28-7.49,47.4-13.4,30.69-37.4,45.73-70.45,46.48-12.77.29-25.57-.83-38.37-1.09-9.05-.18-10.64,1.88-9.91,10.94,1,12.08,1.74,24.18,2.55,36.28.28,4.11-1.91,6.37-6.33,6.3q-27.18-.37-54.36-.92c-5.27-.12-7-2.1-7-7.47.42-39.24,1.08-78.48.94-117.73-.1-30.26-1.68-60.43-4.08-90.57-.65-8.17.84-9.74,9.15-10.36C790.44,1600.53,808.73,1600.7,830,1600.62Zm-.93,88.41c0,9.79.13,19.59-.07,29.38-.07,3.38,1.31,4.92,4.41,5.35,12.72,1.77,25.46,2.81,38.06-.59,11.39-3.08,18-10.78,20.33-22.2a57.51,57.51,0,0,0,.54-18.33c-2-17.32-10.83-26.81-27.9-29.48-10.07-1.57-20.18-.54-30.26.57-4,.44-5.21,2.65-5.15,6.42C829.16,1669.77,829.07,1679.4,829.06,1689Z" transform="translate(-761.99 -998.45)"/><path class="cls-1" d="M1370.41,1829.71c-9.24-.46-18-.76-26.82-1.36-7.41-.51-10.26-3.18-12-10.36a149.4,149.4,0,0,0-5.33-18.17c-1-2.51-2.31-4.35-5.32-4.46q-32.42-1.14-64.85-.09c-3.83.13-5.75,1.9-6.71,5.38-1.56,5.6-3.26,11.15-4.88,16.74-2.75,9.52-4.42,10.59-14.24,11.12-14.45.79-28.87,1.32-43.3,0-1-.1-2-.17-3-.31-8.13-1.14-8.8-2.07-6.21-10,10.38-31.6,22.24-62.68,33.55-94,10.57-29.23,21.45-58.36,32.14-87.55q6.09-16.64,12-33.33c1.52-4.3,3.65-6.93,9-6.35,15.06,1.64,30.2,1.17,45.3.49,5.16-.23,8.1,2.1,9.92,6.59,7.84,19.43,16,38.74,23.53,58.29q25,64.66,49.5,129.54c3.42,9,6.62,18.11,9.71,27.23,1.94,5.71.11,8.59-6,9.1C1387.58,1829,1378.78,1829.26,1370.41,1829.71Zm-81.65-151.15c-7.84,17.88-13.79,36.14-19.19,54.59-1.16,4,.71,5.81,4.75,6.19a141,141,0,0,0,25.33.45c6.06-.52,7.75-2.23,6.4-8.26-1.56-7-3.36-13.89-5.48-20.7C1297.17,1700,1294,1689,1288.76,1678.56Z" transform="translate(-761.99 -998.45)"/><path class="cls-1" d="M1805.82,1829.72c-9.74-.46-18.55-.72-27.33-1.35-8.18-.59-10.6-3-12.49-11-1.41-6-2.8-12-5.17-17.69-1-2.55-2.63-4.21-5.5-4.32q-32.43-1.18-64.86-.11c-3.64.11-5.48,1.86-6.41,5.07-1.65,5.75-3.35,11.48-5,17.24-2.55,9.08-4.55,10.43-13.93,10.94-14.61.8-29.2,1.32-43.8-.06a47.62,47.62,0,0,1-5.43-.77c-4.94-1-5.73-2.44-4.17-7.37,10.24-32.17,22.48-63.64,33.92-95.39,10.93-30.34,22.23-60.56,33.32-90.84,3.72-10.15,7.4-20.31,10.91-30.52,1.58-4.62,3.88-7.12,9.34-6.55,14.9,1.56,29.87,1.37,44.81.49,5.36-.31,8.33,2.08,10.23,6.83,7.25,18.05,14.82,36,21.93,54.08q29,73.81,56.52,148.22c1.61,4.36,3.1,8.78,4.39,13.25,1.46,5-.17,7.74-5.39,8.21C1822.82,1828.89,1813.85,1829.24,1805.82,1829.72Zm-82.65-152.56c-7.6,19.74-14.25,38.08-19.14,57-.9,3.49,1.48,4.62,4.5,5a123.73,123.73,0,0,0,25.81.56c6.23-.46,7.55-2,6.31-8.21-2.16-10.93-5.63-21.5-9.09-32.06C1729.25,1692.46,1727.43,1685.21,1723.17,1677.16Z" transform="translate(-761.99 -998.45)"/><path class="cls-1" d="M790.26,1539H770.78c-7.67,0-9.06-1.36-8.75-9.14.63-15.77,1.44-31.53,2.12-47.29,1.33-30.92,1.06-61.82-.53-92.73-.63-12.27-.74-24.58-1.1-36.87-.12-3.94,1.75-5.82,5.69-5.81a163.24,163.24,0,0,0,34.64-3.8c5.91-1.27,9.71.83,13.12,5.52q33.45,46,67.18,91.85a79.82,79.82,0,0,0,5.46,6.47c.85.93,1.67,2.36,3.24,1.89,1.77-.54,1.82-2.2,1.82-3.71,0-8.82.2-17.65-.13-26.46-.68-18.42-1.74-36.82-2.44-55.24-.16-4.28-1.26-8.56,0-12.9.7-2.39,1.64-3.61,4.39-3.67,14.62-.36,29.23-1,43.85-1.36,5.92-.16,7.07,1,7,7-.42,26.75-1.58,53.48-2.42,80.22-.63,20.29-.13,40.61-.13,60.91,0,12.65,0,25.3,0,38,0,5.83-1.3,7-7,7.23-12.13.47-24.25.06-36.37-.41-4.6-.18-7-3.35-9.46-6.54q-29.19-38.61-58.34-77.26c-3.91-5.17-7.86-10.31-11.9-15.39-.84-1.06-1.66-2.91-3.41-2.23-1.43.55-1.11,2.28-1.08,3.56.41,17.27.91,34.55,1.26,51.82q.42,20.21.52,40.41c0,3.94-2,6.11-6.22,6C804.58,1538.9,797.42,1539,790.26,1539Z" transform="translate(-761.99 -998.45)"/><path class="cls-1" d="M1505.87,1828.93a241.75,241.75,0,0,1-26.22-.82c-6.05-.48-8-2.91-7.58-8.74,1-14.58,2-29.16,3-43.73a25.58,25.58,0,0,0-4.72-17c-18.75-26.89-36.41-54.51-54.08-82.11a29.74,29.74,0,0,1-5.15-17.37c.38-15-1-29.9-1.55-44.84,0-.83,0-1.66,0-2.5-.11-10.67.92-11.62,11.49-11.21,16.44.65,32.89,1.28,49.34,1.72,4.53.12,6.7,1.57,6.48,6.49-.57,13.12-.67,26.26-1.29,39.38a26.35,26.35,0,0,0,4.17,15.59c7.72,12.5,16.93,23.87,26.08,35.31,1.89,2.36,3,1.77,4.51-.18a425,425,0,0,0,26.64-38c3.92-6.34,1.9-13.27,1.61-20-.48-11-1.12-21.91-1.59-32.86-.13-3,.2-5.63,4.34-5.75,18.45-.5,36.89-1.19,55.34-1.71,5.84-.16,7.73,1.65,7.82,7.61.24,18.13.35,36.27.48,54.4,0,4.11-1.59,7.85-3.41,11.34a520.21,520.21,0,0,1-54.38,83c-5.79,7.26-7.87,15-7.28,24,.86,13.1.94,26.24,1.62,39.35.26,5-1.38,7.31-6.54,7.66C1525.51,1828.68,1516.05,1829.07,1505.87,1828.93Z" transform="translate(-761.99 -998.45)"/><path class="cls-1" d="M1346.87,1462.72c-9.14.37-18.29-.37-27.44.58-5.87.62-7.48,1.57-7.47,7.56,0,14.29.52,28.59.78,42.89.12,6.48.23,13,.17,19.46,0,3.35-1.36,5.57-5.3,5.82-14.94.92-29.87,1.39-44.82,0-6.12-.58-7.55-1.9-7.33-8.14.71-20.09,1.62-40.18,2.4-60.26.88-22.78.54-45.54-.56-68.31-.81-16.76-1.06-33.55-1.56-50.33-.12-4.26,1.59-6.59,6.21-6.3a387.47,387.47,0,0,0,45.34,0c4.52-.24,6.48,1.65,6.23,6.14-.85,15.26-1.78,30.51-2.38,45.78-.19,4.74-1.41,9.48,0,14.32.81,2.71,2.1,3.86,4.84,4,15.3.57,30.6,1,45.91.66,5-.12,10-.18,15-.46,6.31-.36,8.48-2.51,8.27-8.71q-.9-26.89-2.15-53.77c-.28-6,1.25-8.14,7.13-7.83,14.29.75,28.56.52,42.85,0,5.86-.21,6.62.86,6.68,6.58.38,33.77-2.92,67.46-2.16,101.22.57,25.59,2.43,51.14,2.54,76.74,0,8.18-.17,8.2-8.28,8.73a299.56,299.56,0,0,1-43.31,0c-4.48-.36-6.54-2.22-6.39-6.91q1-29.4,1.64-58.82c.2-9.08-.39-9.24-9.4-10S1356,1463.12,1346.87,1462.72Z" transform="translate(-761.99 -998.45)"/><path class="cls-1" d="M1134.11,1539.46c-23.61,1.74-47.19-.54-70.78-.5-6.71,0-7.9-1.13-7.71-7.8,1-33.71,3-67.41,2.2-101.15-.58-25.08-1.52-50.14-2.19-75.21-.19-7,1.47-8.39,8.32-8.76,25.93-1.4,51.88-1,77.77.23,19,.88,37.6,4.7,54.06,15.43,12.52,8.16,21.58,19.44,27.82,32.63,16.27,34.38,15.56,68.62-3.54,101.76-16.76,29.05-42.88,42.5-76,43.36C1140.77,1539.53,1137.44,1539.46,1134.11,1539.46Zm-3.39-43.44c18.15.42,32.9-6.09,42.64-21.84,6.39-10.33,8.16-21.88,8.23-33.94.18-33.43-27-59-66-50.42-3.57.78-5.32,2.7-5.39,6.57-.56,30.42-.69,60.84,0,91.26.1,4.26,2.21,6.35,6.15,7.16A78.18,78.18,0,0,0,1130.72,1496Z" transform="translate(-761.99 -998.45)"/><path class="cls-1" d="M1920,1666.42c.15,7.74,4.1,14,8.46,19.83,6.54,8.81,13.48,17.32,20.23,26,18.46,23.71,21,49,6.7,75.48-8.11,15-21.13,25.43-35.67,34-12.5,7.36-26.19,11.3-40.25,14.26a7.7,7.7,0,0,1-8.62-3.4,236.53,236.53,0,0,1-24-43c-1.81-4.18-.6-6,4-7.07,10.65-2.61,21.57-4.51,31.19-10.12,15.06-8.78,18.39-24.33,8.66-38.8-6-8.87-13.11-16.82-20.31-24.61-24-26-26.62-73.23,17.16-98.42a133,133,0,0,1,46.3-16.28c4.87-.76,7.79,1.09,9.44,5.24,5.15,13,11.27,25.53,17.38,38.08.87,1.78,2.74,3.59,1,5.94s-4.12,1.67-6.41,1.46c-12.14-1.13-23.22.84-31.53,10.83A16.21,16.21,0,0,0,1920,1666.42Z" transform="translate(-761.99 -998.45)"/><path class="cls-1" d="M1523.77,1363.12c-.85,31.22-3.4,62.39-2.68,93.65q.86,36.88,1.44,73.77c.13,7.61,0,7.76-7.48,8.5a271.54,271.54,0,0,1-43.81.28c-5.66-.36-7.26-2.71-7-8.49,2-43.15,4.16-86.31,2.85-129.54-.49-16.11-1-32.21-1.37-48.32-.14-6.18,1.15-7.64,7.2-7.28a414.55,414.55,0,0,0,43.32,0c7.1-.32,8.11,1,7.92,8C1524.09,1356.82,1523.9,1360,1523.77,1363.12Z" transform="translate(-761.99 -998.45)"/><path class="cls-1" d="M998.92,1539.44c-6.65,0-13.3.18-19.94,0-6.46-.22-8.38-2.61-8-9,2-38.67,3.71-77.35,3.11-116.08-.32-20.44-1-40.87-1.5-61.3-.14-6.3,1-7.55,7.17-7.25,14.28.71,28.54.61,42.82,0,7.8-.33,8.66,1.14,8.45,9-.93,34.88-4,69.68-3.18,104.61.57,23.92,1.71,47.83,1.54,71.76,0,7.09,0,7.29-7,7.87-7.77.65-15.58.89-23.37,1.31Z" transform="translate(-761.99 -998.45)"/><path class="cls-1" d="M1875.16,1294c8,.36,15.09-2.21,21.62-6.47,2.35-1.53,3.3-1,4.57,1.19a174.48,174.48,0,0,1,16.83,39.34c1.12,4,.73,5.64-3.71,7-16.44,5-26.86,16.23-29.27,33.22-2.45,17.23,4.64,30.83,19.3,40.28a30.52,30.52,0,0,0,11,4.51c3,.54,3.94,2,3.16,4.84a168.16,168.16,0,0,1-17.33,41.27c-1.68,2.89-3.44,1.79-5.36.61a37.7,37.7,0,0,0-20.29-5.92c-31.67.05-51,33.29-35.06,60.74,1.89,3.26,1.67,4.8-1.67,6.58-12.36,6.59-25,12.4-38.55,16.2-3.92,1.1-5.46.17-6.51-4-4.67-18.28-21.3-30.08-41.13-29.65-17,.37-33,13.73-36.81,31.2-.72,3.24-2,3.53-4.82,2.71a177.82,177.82,0,0,1-40-16.65c-3.27-1.9-3.59-3.22-1.64-6.5a40.08,40.08,0,0,0-47.34-58.53,33.86,33.86,0,0,0-8.47,4.16c-2.79,2-3.83,1-5.29-1.5a165.93,165.93,0,0,1-16.78-40.42c-.89-3.17-.18-4.39,3-5.24,17.27-4.54,29.63-19.69,30.69-35.77a40.47,40.47,0,0,0-29.16-42c-4.73-1.35-5.46-3.11-4.11-7.53,4.1-13.42,9.2-26.35,16.34-38.48,1.45-2.46,2.3-3.23,5.24-1.55,25.14,14.36,52.44,3.32,60.38-24.53,3-10.39,1-20.53-4.49-29.73-1.94-3.23-1.77-4.86,1.48-6.65,13-7.15,26.52-13.09,41-16.83,3-.77,3.36.69,3.88,2.85,4.45,18.69,20.34,31.32,39.32,31.34,18.14,0,34.51-12.49,38.75-30.12,1-4.27,2.37-4.5,6.33-3.45,13.48,3.56,25.9,9.44,38.14,15.87,3.45,1.81,4.21,3.43,2,7.27C1824.89,1260.53,1844.22,1293.89,1875.16,1294ZM1851,1374.36c.64-53.34-42.91-95.89-94.63-96.47a96.36,96.36,0,0,0-97.27,96.09c-.15,52.7,43.09,95.89,95.91,96S1851.16,1427.09,1851,1374.36Z" transform="translate(-761.99 -998.45)"/><path class="cls-1" d="M1878,1033.33a31.28,31.28,0,0,0-4.78-17c-1.37-2.12-1-3.27,1-4.37,10.24-5.64,20.83-10.39,32.23-13.21,2.37-.59,3.56-.14,4.29,2.49,4.16,14.95,15.71,23.81,30.3,24.36,14.3.54,29.07-9.94,31.87-24.26.5-2.55,1.71-3.26,4.21-2.64,11.39,2.82,22,7.55,32.24,13.18,2.21,1.22,2.31,2.41,1,4.75-7.67,13.59-5.66,29.09,4.84,39.51s25.8,12.4,39.09,4.83c2.86-1.63,4-1.12,5.37,1.43,5.29,10,9.88,20.31,12.72,31.34.69,2.66.19,3.8-2.63,4.59-15.09,4.21-24.08,15.88-24.1,30.93s9.08,27,23.86,31.17c3,.83,3.5,2,2.75,4.95-2.72,10.91-7.34,21-12.6,30.86-1.39,2.6-2.63,2.91-5.43,1.45-12.43-6.47-24.72-6.31-36,2.53-11.11,8.67-14.4,20.25-11.36,33.82a21.29,21.29,0,0,0,3.36,7.73c1.67,2.37,1.48,3.71-1,5.09a147.66,147.66,0,0,1-32.19,13.37c-2.81.77-3.53-.39-4-2.69-3.54-16.86-21.31-27.92-39.13-23.32-11.72,3-19.54,10.52-22.78,22.17-1.07,3.87-2.67,4.28-6,3.34a146.57,146.57,0,0,1-30.29-12.76c-2.28-1.26-2.92-2.26-1.38-5,7.47-13.23,5.67-28.62-4.17-38.79-10.14-10.48-25.24-12.88-39-5.71-3.44,1.8-4.84,1.1-6.51-2a137.6,137.6,0,0,1-12.25-29.93c-.85-3.16-.18-4.38,3-5.24,14.43-3.88,23.55-16.24,23.5-31.41a31.2,31.2,0,0,0-23.38-30.49c-3.18-.82-4.11-1.88-3.22-5.1a138,138,0,0,1,12.67-30.81c1.61-2.86,2.7-3,5.67-1.39C1851.67,1073.33,1878,1058.05,1878,1033.33Zm63.73,173a77,77,0,1,0-76.83-76.8C1865,1171.82,1899.52,1206.31,1941.72,1206.3Z" transform="translate(-761.99 -998.45)"/><path class="cls-1" d="M1828.91,1374.43c0,40.4-33.28,73.41-73.92,73.38s-73.78-33.29-73.76-74.13c0-40.52,33.48-73.73,74.26-73.67C1796.06,1300.07,1828.94,1333.4,1828.91,1374.43Zm-9.72-.65c-.12-35.25-29.37-64.33-64.37-64s-63.82,29.12-63.89,64.09,29.08,64.2,64.21,64.22S1819.31,1408.92,1819.19,1373.78Z" transform="translate(-761.99 -998.45)"/><path class="cls-1" d="M2000.79,1129.15a59,59,0,0,1-58.92,59.14c-32.44.1-59-26.56-59-59.12a59,59,0,0,1,117.9,0Zm-58.85,51.3a51.19,51.19,0,1,0-51.2-51.16C1890.76,1158.08,1913.15,1180.46,1941.94,1180.45Z" transform="translate(-761.99 -998.45)"/></svg>